<?xml version="1.0" encoding="iso-8859-1"?>
<!-- Generator: Adobe Illustrator 19.0.0, SVG Export Plug-In . SVG Version: 6.00 Build 0)  -->
<svg xmlns="http://www.w3.org/2000/svg" xmlns:xlink="http://www.w3.org/1999/xlink" version="1.1" id="Capa_1" x="0px" y="0px" viewBox="0 0 490.1 490.1" style="enable-background:new 0 0 490.1 490.1;" xml:space="preserve" width="512px" height="512px">
<g>
	<g>
		<path d="M408.05,195.2h-49.8v-82c0-62.3-50.9-113.2-113.2-113.2s-113.2,50.8-113.2,113.1v82h-49.8c-11.4,0-20.8,9.3-20.8,20.8    v253.4c0,11.4,9.3,20.8,20.8,20.8h326c11.4,0,20.8-9.3,20.8-20.8V215.9C428.85,204.5,419.45,195.2,408.05,195.2z M174.45,114.2    c0-39.5,32.2-71.6,71.6-71.6c39.5,0,71.6,32.2,71.6,71.6v81h-143.2V114.2z M388.35,448.5h-285.6V236.7h285.5v211.8H388.35z" fill="#bdbdbd"/>
		<path d="M245.05,416.3c11.4,0,20.8-9.3,20.8-20.8v-54c0-11.4-9.3-20.8-20.8-20.8c-11.5,0-20.8,9.3-20.8,20.8v54    C224.25,407,233.65,416.3,245.05,416.3z" fill="#bdbdbd"/>
	</g>
</g>
<g>
</g>
<g>
</g>
<g>
</g>
<g>
</g>
<g>
</g>
<g>
</g>
<g>
</g>
<g>
</g>
<g>
</g>
<g>
</g>
<g>
</g>
<g>
</g>
<g>
</g>
<g>
</g>
<g>
</g>
</svg>
